<svg xmlns="http://www.w3.org/2000/svg" width="800" height="600" viewBox="0 0 800 600" role="img" aria-labelledby="title desc">
  <title id="title">CLASPTEK Certificate of Completion</title>
  <desc id="desc">A formal certificate matching the sample design.</desc>

  <defs>
    <style>
      .serif { font-family: Georgia, 'Times New Roman', serif; }
      .ui { font-family: 'Segoe UI', Arial, sans-serif; }
      .small { font-size: 11px; }
      .tiny { font-size: 9px; }
      .rule { stroke: #121212; stroke-width: 1.5; }
      .bar { stroke: #0d2c7e; stroke-width: 6; }
      .blue { fill: #0d2c7e; }
      .dark { fill: #111111; }
      .muted { fill: #2d2d2d; }
      .red { fill: #d80e0e; }
    </style>
  </defs>

  <rect width="800" height="600" fill="#f2f2f2"/>
  <rect x="12" y="12" width="776" height="576" fill="#f7f7f7" stroke="#d7d7d7" stroke-width="2"/>
  <line x1="0" y1="18" x2="800" y2="18" class="bar"/>
  <line x1="0" y1="582" x2="800" y2="582" class="bar"/>

  <g transform="translate(46 34)">
    <rect x="0" y="0" width="52" height="52" rx="8" fill="#ffffff" stroke="#0d2c7e" stroke-width="3"/>
    <rect x="8" y="8" width="36" height="36" rx="6" fill="#0d2c7e"/>
    <path d="M18 18 L18 36 L26 30 L34 36 L34 18 Z" fill="#ffffff"/>
    <path d="M26 18 L26 30" stroke="#0d2c7e" stroke-width="2"/>
  </g>

  <g transform="translate(110 36)">
    <text x="0" y="16" class="serif ui" font-size="25" font-weight="700" fill="#0d2c7e">CLASPTEK</text>
    <text x="2" y="34" class="ui" font-size="10" fill="#0d2c7e" font-weight="700">COACHING LIMITED</text>
    <text x="2" y="48" class="ui tiny" fill="#535353">Learn | Lead | Impact</text>
  </g>

  <text x="730" y="44" text-anchor="end" class="ui small" fill="#232323">Certificate/Candidate No: CLASP260100149</text>

  <text x="400" y="126" text-anchor="middle" class="serif" font-size="82" font-weight="700" fill="#0d2c7e">Certificate</text>
  <text x="400" y="176" text-anchor="middle" class="ui" font-size="24" font-weight="700" fill="#0d2c7e">OF COMPLETION</text>

  <text x="400" y="220" text-anchor="middle" class="serif" font-size="22" fill="#1b1b1b">This certificate that</text>

  <text x="400" y="272" text-anchor="middle" class="serif" font-size="38" font-weight="700" fill="#111111">ADENIRAN PATRICK DARASIMI</text>
  <line x1="120" y1="286" x2="680" y2="286" class="rule"/>

  <text x="400" y="320" text-anchor="middle" class="ui" font-size="15" fill="#1d1d1d">Has successfully gained the knowledge and practical skills with key focus in</text>
  <text x="400" y="344" text-anchor="middle" class="ui" font-size="15" fill="#1d1d1d">Front-End &amp; Back-End Web Development</text>

  <text x="400" y="376" text-anchor="middle" class="ui" font-size="12" fill="#1c1c1c">Tools &amp; Technologies: HTML5 • CSS3 • JavaScript (ES6+) • React.js • Next.js • Express.js • MongoDB • Git &amp; GitHub</text>

  <text x="400" y="414" text-anchor="middle" class="serif" font-size="25" font-weight="700" fill="#111111">As a Full-Stack Web Developer</text>

  <g transform="translate(100 430)">
    <path d="M40 18 C20 40, 20 68, 35 88 C60 80, 70 58, 78 26 C66 18, 52 14, 40 18 Z" fill="none" stroke="#111111" stroke-width="1.5"/>
    <text x="60" y="104" text-anchor="middle" class="ui tiny" fill="#222">Academy Director Signature</text>
  </g>

  <g transform="translate(328 420)">
    <circle cx="72" cy="52" r="58" class="red"/>
    <circle cx="72" cy="52" r="38" fill="#d80e0e" stroke="#ffffff" stroke-width="3"/>
    <path d="M72 16 L77 48 L72 82 L67 48 Z" fill="#ffffff"/>
    <path d="M36 52 L68 48 L102 52 L68 56 Z" fill="#ffffff"/>
    <text x="72" y="58" text-anchor="middle" class="ui tiny" fill="#ffffff" font-weight="700">SEAL</text>
  </g>

  <g transform="translate(570 430)">
    <path d="M35 18 C70 34, 90 26, 112 5" fill="none" stroke="#111111" stroke-width="1.4"/>
    <text x="70" y="104" text-anchor="middle" class="ui tiny" fill="#222">24th April, 2026</text>
    <text x="70" y="120" text-anchor="middle" class="ui tiny" fill="#222">Date</text>
  </g>
</svg>
